<?xml version="1.0" encoding="UTF-8"?>
<svg id="Layer_2" data-name="Layer 2" xmlns="http://www.w3.org/2000/svg" viewBox="0 0 5603.63 1035.54">
  <defs>
    <style>
      .cls-1 {
        fill: #818cf8;
      }

      .cls-2 {
        fill: #fff;
      }

      .cls-3 {
        fill: #7a87e5;
      }
    </style>
  </defs>
  <g id="Layer_1-2" data-name="Layer 1">
    <g>
      <path class="cls-2" d="M438.57,923.76c64.33-102.29,148.1-209.21,249.24-318.17v429.95h-279.15v-7.99c0-36.72,10.37-72.7,29.91-103.79h0Z"/>
      <path class="cls-2" d="M408.65,266.04H0V0h637.83l92.39,92.39c-16.3,21.21-41.71,55.36-71.67,99.5-80.37,118.55-186.63,298.95-249.9,500.64v-426.5Z"/>
      <path class="cls-3" d="M1064.39,0v376.62l-89.6-89.6s-134.18,106.18-286.95,266.92c-95.19,100.02-197.54,221.21-279.17,351h0c0-55.62,7.54-111.01,22.63-164.54,60.6-215.02,175.75-409.48,256.54-528.66,48.35-71.33,84.39-115.79,89.1-121.5.31-.44.5-.63.5-.63L687.83,0h376.55Z"/>
      <path class="cls-1" d="M1064.38.02S540.72,450.03,408.65,904.94c0-27.84,1.9-55.58,5.65-83.07,3.8-27.48,9.46-54.7,16.97-81.47,60.62-215.04,175.76-409.49,256.57-528.66,48.34-71.36,84.39-115.81,89.07-121.5.31-.44.53-.66.53-.66L687.85.02h376.53Z"/>
      <path class="cls-2" d="M3826.69,25.05v1010.48h407.08c218.15,1.47,422.43-99.92,422.43-332.52v-339.71c0-235.46-204.29-338.24-422.43-338.24h-407.08ZM4103.17,795.73V263.37h139.82c92.15,0,136.67,41.42,136.67,107.04v315.47c0,65.61-42.98,109.85-136.67,109.85h-139.82Z"/>
      <path class="cls-2" d="M2370.2,264.84h479.33V25.05h-757.35v1010.49h757.35v-241.19h-479.33v-141.01h440.9v-246.09h-440.9v-142.41Z"/>
      <path class="cls-2" d="M2898.37,1035.47h274.92v-513.67l313.37,513.74h278.07V25.05h-273.45l2.79,547.47L3159.47,25.05h-261.1v1010.42Z"/>
      <path class="cls-2" d="M1701,1035.54h351.07l-303.81-355.45c135.34-39.44,218.74-147.71,218.74-339.32C1960.78,97.96,1782.85,0,1553,0h-445.46v1035.54h284.92v-391.67l308.54,391.67ZM1392.46,481.18v-236.94h165.25c177.94,0,177.94,236.94,0,236.94h-165.25Z"/>
      <path class="cls-2" d="M5222.69,1035.54v-398.21L5603.63,25.05h-322.6l-196.62,348.1-196.62-348.1h-319.54l379.48,612.28v398.21h274.95Z"/>
    </g>
  </g>
</svg>