<?xml version="1.0" encoding="UTF-8"?>
<svg id="Layer_1" xmlns="http://www.w3.org/2000/svg" version="1.1" viewBox="0 0 1224 373.3">
  <!-- Generator: Adobe Illustrator 30.0.0, SVG Export Plug-In . SVG Version: 2.1.1 Build 123)  -->
  <path d="M458.7,101.5h-12.7c-14.5-.4-29,7.2-38,14.6v-11.9h-44.3v173.2h44.3v-95.5c0-25.9,15.4-35.3,32.9-35.3h17.8v-45.1ZM458.7,101.5" fill="#72499d"/>
  <path d="M551.8,100h-1.1c-15,.3-29.1,3.8-41.7,10.7h-.1c0-.1-1,.4-1,.4,0,0,0,0-.1,0-12.8,7.1-23.1,17.5-30.6,30.4h-.2l-.4.8c-7.7,13.5-11.4,29.2-11.4,46.3s3.6,32.8,11,46.4h0c0,.1,0,.2,0,.2,7.5,13.1,18,23.8,30.9,31.2h.1c0,0,0,.1,0,.1,13.1,7.2,28,10.8,43.7,10.8s30.3-3.6,43.4-10.5h.6l.4-.6c13.2-7.4,23.8-18.1,31.3-31.4,3.2-5.7,5.8-11.8,7.6-18.3l.6-2h-47.4l-.5.8c-4,7-8.8,11.7-15,15.1-6.5,3.4-13.3,5-21.2,5s-14.6-1.7-21.1-5c-5.9-3.3-10.7-8-14.7-15-1.6-2.9-2.7-6.4-3.6-10.1h125.3l.2-1.4c.7-5,1.1-10.2,1.1-15.5,0-17.1-3.7-32.8-11.4-46.3-7.4-13.4-18.1-24.1-31.4-31.4-13.1-7.4-28-11.1-43.8-11.1h0ZM551.5,142h.2c18.8.5,31.8,10.2,38.8,27h-78.1c7-17.5,21.6-26.9,39.1-27h0ZM551.5,142" fill="#72499d"/>
  <path d="M996.8,49.4h-44.3v64.9c-1.2-1.1-2.3-2.1-3.8-3.1-12.5-7.5-26.7-11.3-41.7-11.3s-29.7,3.7-42.4,11h-.2l-.4.2c-12.4,7.1-22.3,17.7-29.4,30.7h-.2l-.4.7s0,0,.1-.1c0,0-.1.2-.2.3-7.2,13.4-10.7,28.9-10.7,45.8s3.4,32.3,10.3,45.9h0c0,0,0,.2,0,.2h0c7.1,13.4,17.3,24.3,29.9,31.8l.4.2h.2c12.7,7.3,27.1,11,42.4,11s30.6-3.8,43.1-11.7h.1c0,0,.2-.3.2-.3,1-.7,1.7-1.4,2.5-2.1v11.9h44.3V49.4ZM909.7,141.8h.4c8.1,0,14.8,1.8,21.2,5.6l.4.2c6.3,3.7,11.1,8.6,14.9,15.7,3.8,7,5.8,15.2,5.8,25.4s-2,18.4-5.8,25.4c-3.8,7.1-8.6,12-14.9,15.7l-.4.2c-6.4,3.7-13.1,5.6-21.2,5.6s-15.5-1.8-21.8-5.3c-6.2-3.7-11-8.6-14.9-15.7-3.6-7.2-5.6-15.7-5.6-26.1s2-19,5.5-25.7c3.9-7.2,8.6-12,14.8-15.5,6.2-3.5,13.2-5.2,21.6-5.3h0ZM909.7,141.8" fill="#72499d"/>
  <path d="M1010.1,108.2l.9,2.2,65,157.6-33.9,83.1h47.2l98-242.9h-47l-40.3,104.2-41.6-104.2h-48.4ZM1010.1,111.2" fill="#72499d"/>
  <path d="M733.4,101.5c-13,0-25.3,2.9-36.1,8.8-.7.4-1.1.8-1.6,1.2v-7.4h-44.3v173.2h44.3v-93.4c0-15.5,3.6-25.1,9.3-31.1,6.1-6.5,13.3-9.6,24.9-9.6s18,2.9,23.5,8.7h0c0,0,.1.2.1.2,5.4,5.6,8.7,14.1,8.7,28.1v97.2h44v-99.4c0-23-6.5-42.8-20.6-56.4-13.2-13-31-19.8-50.6-20.2h-1.6ZM733.4,101.5" fill="#72499d"/>
  <path d="M263.2,67.2v36.8h-21.2v41.8h21.2v72.1c0,18.1,4.8,34,16.1,44.6h0c0,.1.2.3.2.3,11.7,10.7,28.5,14.7,48.6,14.7h12.7v-41.2l-12.3-.4c-9.8-.3-13.7-2.6-16.4-5.8-2.6-3.1-4.6-8.8-4.7-17.9v-66.4h33.9v-41.8h-33.9v-36.7h-44.3ZM263.2,67.2" fill="#72499d"/>
  <path d="M94.2,152.3l-21.5,42.7h43.9l-16,46.5,46-63.8h-37.6l24.5-49.7h-27l-12.3,24.4h0ZM88.9,127.9H28.6l27.6-56.1h174.5l-27.6,56.1h-52.1l-16.7,34h43.1l-92.2,127.9c-2.5,3.5-7.1,4.5-10.8,2.6-3.8-2-5.5-6.3-4.1-10.3l24.5-71.4h-47.3l29.4-58.4,12.3-24.4h0ZM193.4,112.2l12.1-24.6H66l-12.1,24.6h139.5Z" fill="#f26a21"/>
  <path d="M1496.2-156l-21.5,42.7h43.9l-16,46.5,46-63.8h-37.6l24.5-49.7h-27l-12.3,24.4h0ZM1490.9-180.4h-60.3l27.6-56.1h174.5l-27.6,56.1h-52.1l-16.7,34h43.1l-92.2,127.9c-2.5,3.5-7.1,4.5-10.8,2.6-3.8-2-5.5-6.3-4.1-10.3l24.5-71.4h-47.3l29.4-58.4,12.3-24.4h0ZM1595.4-196.1l12.1-24.6h-139.5l-12.1,24.6h139.5Z" fill="#f26a21"/>
</svg>